<svg width="27" height="23" viewBox="0 0 27 23" fill="none" xmlns="http://www.w3.org/2000/svg">
<path fill-rule="evenodd" clip-rule="evenodd" d="M0 11.0132L11.0132 0L22.0263 11.0132L11.0132 22.0263L0 11.0132ZM11.0132 20.5191L20.5191 11.0132L11.0132 1.50725L1.50725 11.0132L11.0132 20.5191Z" fill="white"/>
<path fill-rule="evenodd" clip-rule="evenodd" d="M4.97369 11.0132L15.9869 0L27 11.0132L15.9869 22.0263L4.97369 11.0132ZM15.9869 20.5191L25.4928 11.0132L15.9869 1.50725L6.48095 11.0132L15.9869 20.5191Z" fill="white"/>
<path d="M2.48682 11.0132L13.5 0L24.5131 11.0132L13.5 22.0263L2.48682 11.0132Z" fill="white"/>
<path fill-rule="evenodd" clip-rule="evenodd" d="M2.48682 11.0132L13.5 0L24.5131 11.0132L13.5 22.0263L2.48682 11.0132ZM13.5 19.0118L21.4986 11.0132L13.5 3.01451L5.50132 11.0132L13.5 19.0118Z" fill="white"/>
<path d="M14.6935 12.8658C14.6935 12.5369 14.6123 12.2788 14.4499 12.0914C14.2876 11.9041 14.0024 11.7271 13.5944 11.5606C13.1864 11.3941 12.8096 11.2255 12.4641 11.0548C12.1185 10.8841 11.8208 10.6863 11.571 10.4615C11.3212 10.2367 11.1297 9.97651 10.9965 9.68092C10.8633 9.38533 10.7967 9.02729 10.7967 8.6068C10.7967 7.90321 11.034 7.32452 11.5086 6.87073C11.9832 6.41277 12.616 6.14633 13.407 6.07139V4.75372H14.4V6.09637C15.1618 6.20878 15.7593 6.5231 16.1922 7.03934C16.6294 7.55142 16.8479 8.20297 16.8479 8.99398H14.7372C14.7372 8.56101 14.6539 8.22795 14.4874 7.9948C14.3209 7.76166 14.0836 7.64509 13.7755 7.64509C13.5007 7.64509 13.2863 7.73252 13.1323 7.90738C12.9824 8.07807 12.9074 8.31537 12.9074 8.61929C12.9074 8.92737 12.9949 9.173 13.1697 9.35618C13.3446 9.5352 13.6256 9.70798 14.0128 9.87451C14.4 10.0369 14.7642 10.2076 15.1056 10.3866C15.4512 10.5614 15.7488 10.7613 15.9986 10.9861C16.2484 11.2109 16.4441 11.4732 16.5857 11.7729C16.7272 12.0727 16.798 12.4328 16.798 12.8533C16.798 13.5652 16.5711 14.146 16.1173 14.5956C15.6677 15.0453 15.0536 15.3075 14.2751 15.3825V16.6377H13.2821V15.3762C12.3745 15.2805 11.6772 14.9703 11.1901 14.4457C10.7072 13.917 10.4657 13.2218 10.4657 12.36H12.5702C12.5702 12.8346 12.6743 13.1968 12.8825 13.4466C13.0948 13.6922 13.3945 13.815 13.7817 13.815C14.0648 13.815 14.2876 13.7317 14.4499 13.5652C14.6123 13.3945 14.6935 13.1614 14.6935 12.8658Z" fill="#292F36"/>
</svg>
